<svg xmlns="http://www.w3.org/2000/svg" viewBox="0 0 800 500" preserveAspectRatio="xMidYMid slice">
<defs><linearGradient id="b" x2="1" y2="1"><stop stop-color="#1f6148"/><stop offset=".45" stop-color="#0d3325"/><stop offset="1" stop-color="#060d09"/></linearGradient><radialGradient id="g"><stop stop-color="#e0b65b" stop-opacity=".3"/><stop offset="1" stop-color="#e0b65b" stop-opacity="0"/></radialGradient></defs>
<rect width="800" height="500" fill="url(#b)"/><ellipse cx="420" cy="220" rx="430" ry="330" fill="url(#g)"/>
<ellipse cx="400" cy="260" rx="360" ry="160" fill="#071d15" fill-opacity=".55" stroke="#d8b56b" stroke-opacity=".55" stroke-width="4"/>
<ellipse cx="400" cy="260" rx="340" ry="143" fill="none" stroke="#f0d48b" stroke-opacity=".18" stroke-width="2"/>
<g transform="translate(290 95) rotate(-13)"><rect width="88" height="170" rx="8" fill="#d9c69c" stroke="#f0d995" stroke-width="3"/><path d="M7 85H81" stroke="#7b6240" stroke-width="3"/><g fill="#7d342b"><circle cx="44" cy="30" r="7"/><circle cx="28" cy="120" r="6"/><circle cx="60" cy="150" r="6"/></g></g>
<g transform="translate(380 75) rotate(3)"><rect width="94" height="184" rx="9" fill="#f2e8ce" stroke="#e6ca7d" stroke-width="3"/><path d="M7 92H87" stroke="#7b6240" stroke-width="3"/><g fill="#1f6448"><circle cx="30" cy="35" r="6"/><circle cx="64" cy="35" r="6"/><circle cx="47" cy="135" r="7"/><circle cx="30" cy="159" r="6"/><circle cx="64" cy="159" r="6"/></g></g>
<g transform="translate(480 110) rotate(14)"><rect width="82" height="160" rx="8" fill="#d9c69c" stroke="#f0d995" stroke-width="3"/><path d="M7 80H75" stroke="#7b6240" stroke-width="3"/><g fill="#7d342b"><circle cx="41" cy="37" r="7"/><circle cx="22" cy="120" r="6"/><circle cx="60" cy="120" r="6"/></g></g>
<g fill="#e6c474" fill-opacity=".8"><circle cx="115" cy="335" r="8"/><circle cx="132" cy="335" r="8"/><circle cx="149" cy="335" r="8"/><circle cx="166" cy="335" r="8"/><circle cx="183" cy="335" r="8"/></g>
</svg>